<?xml version="1.0" encoding="UTF-8" standalone="no"?>
<svg
   xmlns:dc="http://purl.org/dc/elements/1.1/"
   xmlns:cc="http://creativecommons.org/ns#"
   xmlns:rdf="http://www.w3.org/1999/02/22-rdf-syntax-ns#"
   xmlns:svg="http://www.w3.org/2000/svg"
   xmlns="http://www.w3.org/2000/svg"
   xmlns:sodipodi="http://sodipodi.sourceforge.net/DTD/sodipodi-0.dtd"
   xmlns:inkscape="http://www.inkscape.org/namespaces/inkscape"
   viewBox="0 0 80 40"
   version="1.1"
   id="svg4"
   sodipodi:docname="leaf.svg"
   inkscape:version="0.92.4 (5da689c313, 2019-01-14)">
  <metadata
     id="metadata10">
    <rdf:RDF>
      <cc:Work
         rdf:about="">
        <dc:format>image/svg+xml</dc:format>
        <dc:type
           rdf:resource="http://purl.org/dc/dcmitype/StillImage" />
        <dc:title />
      </cc:Work>
    </rdf:RDF>
  </metadata>
  <defs
     id="defs8" />
  <sodipodi:namedview
     pagecolor="#ffffff"
     bordercolor="#666666"
     borderopacity="1"
     objecttolerance="10"
     gridtolerance="10"
     guidetolerance="10"
     inkscape:pageopacity="0"
     inkscape:pageshadow="2"
     inkscape:window-width="1920"
     inkscape:window-height="1017"
     id="namedview6"
     showgrid="false"
     inkscape:zoom="9.475"
     inkscape:cx="27.505053"
     inkscape:cy="18.344306"
     inkscape:window-x="-8"
     inkscape:window-y="-8"
     inkscape:window-maximized="1"
     inkscape:current-layer="svg4" />
  <g
     id="g813"
     style="fill:#ffe9f8;fill-opacity:1">
    <path
       style="fill:#ffe9f8;fill-opacity:1"
       fill="#000"
       id="path2"
       d="M0 40a19.96 19.96 0 0 1 5.9-14.11 20.17 20.17 0 0 1 19.44-5.2A20 20 0 0 1 20.2 40H0zM65.32.75A20.02 20.02 0 0 1 40.8 25.26 20.02 20.02 0 0 1 65.32.76zM.07 0h20.1l-.08.07A20.02 20.02 0 0 1 .75 5.25 20.08 20.08 0 0 1 .07 0zm1.94 40h2.53l4.26-4.24v-9.78A17.96 17.96 0 0 0 2 40zm5.38 0h9.8a17.98 17.98 0 0 0 6.67-16.42L7.4 40zm3.43-15.42v9.17l11.62-11.59c-3.97-.5-8.08.3-11.62 2.42zm32.86-.78A18 18 0 0 0 63.85 3.63L43.68 23.8zm7.2-19.17v9.15L62.43 2.22c-3.96-.5-8.05.3-11.57 2.4zm-3.49 2.72c-4.1 4.1-5.81 9.69-5.13 15.03l6.61-6.6V6.02c-.51.41-1 .85-1.48 1.33zM17.18 0H7.42L3.64 3.78A18 18 0 0 0 17.18 0zM2.08 0c-.01.8.04 1.58.14 2.37L4.59 0H2.07z" />
  </g>
</svg>
