<?xml version="1.0" encoding="UTF-8" standalone="no"?>
<svg
   xmlns:dc="http://purl.org/dc/elements/1.1/"
   xmlns:cc="http://creativecommons.org/ns#"
   xmlns:rdf="http://www.w3.org/1999/02/22-rdf-syntax-ns#"
   xmlns:svg="http://www.w3.org/2000/svg"
   xmlns="http://www.w3.org/2000/svg"
   xmlns:sodipodi="http://sodipodi.sourceforge.net/DTD/sodipodi-0.dtd"
   xmlns:inkscape="http://www.inkscape.org/namespaces/inkscape"
   id="Capa_1"
   data-name="Capa 1"
   viewBox="0 0 830 1288"
   version="1.1"
   sodipodi:docname="lima - copia.svg"
   inkscape:version="0.92.4 (5da689c313, 2019-01-14)">
  <metadata
     id="metadata95">
    <rdf:RDF>
      <cc:Work
         rdf:about="">
        <dc:format>image/svg+xml</dc:format>
        <dc:type
           rdf:resource="http://purl.org/dc/dcmitype/StillImage" />
      </cc:Work>
    </rdf:RDF>
  </metadata>
  <sodipodi:namedview
     pagecolor="#ffffff"
     bordercolor="#666666"
     borderopacity="1"
     objecttolerance="10"
     gridtolerance="10"
     guidetolerance="10"
     inkscape:pageopacity="0"
     inkscape:pageshadow="2"
     inkscape:window-width="1920"
     inkscape:window-height="1017"
     id="namedview93"
     showgrid="false"
     inkscape:zoom="0.51825217"
     inkscape:cx="690.92572"
     inkscape:cy="562.9995"
     inkscape:window-x="-8"
     inkscape:window-y="-8"
     inkscape:window-maximized="1"
     inkscape:current-layer="Capa_1" />
  <defs
     id="defs4">
    <style
       id="style2">.cls-1{fill:#ffc68b;stroke-width:3px;}.cls-1,.cls-2,.cls-3,.cls-6,.cls-7{stroke:#000;}.cls-1,.cls-2,.cls-3,.cls-5,.cls-6,.cls-7{stroke-miterlimit:10;}.cls-2,.cls-4,.cls-5{fill:#ffb633;}.cls-3{fill:#00d6fe;}.cls-5{stroke:#050505;}.cls-6{fill:#69c65e;}.cls-7{fill:#ffb0c0;}</style>
  </defs>
  <title
     id="title6">lima</title>
  <path
     class="cls-1"
     d="M589.5,1138.5c0-5-7-2-10-1s-5,9-7,6a29,29,0,0,0-5.64-5.16c.47,3,.46,5.79,4.64,14.16,5,10-7,16-7,16-6-2-2,4-2,7s3,10-1,8-4,3-4,6v4c-4,1-3,7-2,8s0,1-2,7-10,7-10,7c-7-2,0,6,1,10s0,10-5,9,0,4,0,4c8,5,3,6,3,6-8,11-3,10-3,10s3-3,7,0,16,15,16,15v-5l-7-15s3-12,12-11,11-11,11-11c0-9,8-13,8-13,11-6,10-10,13-17s-3-22-4-26c-.9-3.58,3-19.17,3.85-22.4C594.75,1146.06,589.5,1141.68,589.5,1138.5Z"
     id="path8"
     style="fill:#ff4081;fill-opacity:1;stroke-width:0.5;stroke-miterlimit:10;stroke-dasharray:none;stroke:#ffffff;stroke-opacity:1" />
  <path
     class="cls-1"
     d="M577.5,1094.5c-1,2-6,13-6,13l-5.07-.46a7.29,7.29,0,0,0,3.07,4.46c4,3,2,16-1,14s-3,7-2,11c.16.65.27,1.25.36,1.84a29,29,0,0,1,5.64,5.16c2,3,4-5,7-6s10-4,10,1c0,3.18,5.25,7.56,9.85,10.6.09-.38.15-.6.15-.6s-5-28-5-36a6.94,6.94,0,0,1,.22-1.78l-8.22-8.22S578.5,1092.5,577.5,1094.5Z"
     id="path10"
     style="fill:#ff4081;fill-opacity:1;stroke-width:0.5;stroke-miterlimit:10;stroke-dasharray:none;stroke:#ffffff;stroke-opacity:1" />
  <path
     class="cls-1"
     d="M662.5,1031.5c-2-1-9-1-10,0s-13,3-13,3h-14l-9,5c-9,12-18,9-26,20-6.14,8.44-25.82,24-34.64,30.7-.05,1.55.27,2.76,1.64,2.3,3-1,4-1,6,0s-2,7-1,7,9,1,6,3a4.45,4.45,0,0,0-2.07,4.54l5.07.46s5-11,6-13,9,8,9,8l8.22,8.22c1.56-5.89,11.19-4.14,15.78-3.22,5,1,8-2,13-3s12,1,15-2,25-15,25-15c6,3,27-1,29-9s4-9,7-16-9-6-9-6c0-7-5-4-7-9s3-13,5-19a23.91,23.91,0,0,0,1-6.68C680.42,1026,664,1032.23,662.5,1031.5Z"
     id="path12"
     style="fill:#ff4081;fill-opacity:1;stroke-width:0.5;stroke-miterlimit:10;stroke-dasharray:none;stroke:#ffffff;stroke-opacity:1" />
  <path
     class="cls-1"
     d="M756.5,881.5c0-3-11-7-12-7s-8-1-9-5c-.86-3.43-4.66-7.59-8.25-9.34-7.17,6.69-17.59,18-19.75,32.34-3,20-18,21-27,34s-33,21-43,37-24,4-28,11-12,15-13,15h-9s-7,14-21,19-25,15-29,21c-2.23,3.34-9.11,7.61-14.77,10.74-1.17,3.37-2.91,8.26.77,8.26,5,0,13,7,17,9s3,12,6,14,10,13,10,14c0,.54-.59,2.86-.64,4.7,8.82-6.75,28.5-22.26,34.64-30.7,8-11,17-8,26-20l9-5h14s12-2,13-3,8-1,10,0c1.46.73,17.92-5.5,27-9.68.17-3.87.07-7.9,2-12.32,3-7,5-3,7-5s9-15,9-15c13-2,10-12,11-14s-2-13,2-17,6,3,15-5,6-19,10-24,7-17,6-20,2-7,4-10S756.5,884.5,756.5,881.5Z"
     id="path14"
     style="fill:#ff4081;fill-opacity:1;stroke-width:0.5;stroke-miterlimit:10;stroke-dasharray:none;stroke:#ffffff;stroke-opacity:1" />
  <path
     class="cls-1"
     d="M537.5,1029.5c4-6,15-16,29-21s21-19,21-19h9c1,0,9-8,13-15s18,5,28-11,34-24,43-37,24-14,27-34c2.16-14.37,12.58-25.65,19.75-32.34a8.77,8.77,0,0,0-1.75-.66c-4-1-5-10-4-15s-4-5-6-13c-1.62-6.48-7.83-8.37-8-11.51-8.49,7.25-20,18.56-29,25.51-13,10-7,23-27,31s-13,24-20,27-14,11-14,11-18,2-20,2-9-2-9-2c-18,25-25,4-35,18s-20,16-32,24c-8.76,5.84-22.85,26.6-30.2,38.16.52.53.93.84,1.2.84,2,0,13,3,8,10s2,5,2,8,1,5,2,5,3,2,4,7,4,5,7,4,8,6,8,8a11.67,11.67,0,0,1-.77,2.74C528.39,1037.11,535.27,1032.84,537.5,1029.5Z"
     id="path16"
     style="fill:#ff4081;fill-opacity:1;stroke-width:0.5;stroke-miterlimit:10;stroke-dasharray:none;stroke:#ffffff;stroke-opacity:1" />
  <path
     class="cls-1"
     d="M680.5,817.5c-4,2-15,10-25-1s-13-10-23-15-19,2-21,9-7,4-9,6-8,11-15,10-15,8-21,14-15,9-15,9-26-14-30,0-18,16-26,19-9,14-6,19-2,18-5,12-6-9-10-5-11,2-11-5-5-1-6-10-4-7-7-11-15-14-14-10-4,7-11,22-11,5-14,11,3,6-2,10,2,11-5,10-14,3-14,3l-12-7-2.67,2.67.67.33c25,12,50,45,58,47s34,19,40,20c5.2.87,13.4,13.74,16.8,17.16,7.35-11.56,21.44-32.32,30.2-38.16,12-8,22-10,32-24s17,7,35-18c0,0,7,2,9,2s20-2,20-2,7-8,14-11,0-19,20-27,14-21,27-31c9-7,20.5-18.26,29-25.51a2.56,2.56,0,0,1,.17-1C699.25,818.7,683.65,815.92,680.5,817.5Z"
     id="path18"
     style="fill:#ff4081;fill-opacity:1;stroke-width:0.5;stroke-miterlimit:10;stroke-dasharray:none;stroke:#ffffff;stroke-opacity:1" />
  <path
     class="cls-1"
     d="M334.5,860.5c4-9,3-19,3-19s-10-4-11-11,3-15,0-19a64.66,64.66,0,0,0-6.3-6.48c-1.69,2.65-3.7,5.9-3.7,6.48,0,1-11-8-11-8l-5,10-11-12,5-7-13-8L274.08,789c-.65,3.82-1.58,7.53-1.58,7.53s2,5-4,5-12,3-9,5,6,11,6,11c-3,3-8,7-7,8s1,5,0,10,5,9,6,11-5,6-5,8,9,2,9,2c5,0,20,12,28,14,4.26,1.07,19.59,8.94,36.76,17.88l4.24-7.88S330.5,869.5,334.5,860.5Z"
     id="path20"
     style="fill:#ff4081;fill-opacity:1;stroke-width:0.5;stroke-miterlimit:10;stroke-dasharray:none;stroke:#ffffff;stroke-opacity:1" />
  <path
     class="cls-1"
     d="M403.5,881.5c-4-2-6-16-6-16l-25-41c-4,8-8-1-16,8s-19,4-19,4l-2.19,3.94a23.09,23.09,0,0,0,2.19,1.06s1,10-3,19,3,20,3,20l-4.24,7.88c14.78,7.7,30.93,16.18,42.57,21.79l2.67-2.67,12,7s7-4,14-3,0-6,5-10-1-4,2-10a4.42,4.42,0,0,1,1.29-1.66C411.09,884.05,406.67,883.08,403.5,881.5Z"
     id="path22"
     style="fill:#ff4081;fill-opacity:1;stroke-width:0.5;stroke-miterlimit:10;stroke-dasharray:none;stroke:#ffffff;stroke-opacity:1" />
  <path
     class="cls-1"
     d="M706.5,811.5c-3,1-6,0-10-3s-4-9-8-10-8-8-8-9-2-10-5-13-2-9-2-9,10-7,12-10-7-8-11-9-5-9-5-9-5-7-13-6a10.9,10.9,0,0,1-2.72,0c-5.34,3.54-12,6-14.28,9-3,4-13,5-13,5-3,4-9,5-12,9s-22,9-28,6a12,12,0,0,0-11,0s-22,13-33,9-38,5-38,5l-67-115s-1,19-2,22,8-1,6,7,1,4,1,11-9,5-9,5,4,5,3,9-9,19-9,19-6-4-9,1c-2.05,3.42-6.43,6.36-9,7.89v9.11s11,5,11,6,8,20,12,24,12,2,11,12,7,4-1,18,6,7-6,27c0,3-3,6-3,7a43.31,43.31,0,0,0,1,5,39,39,0,0,0,1.67,10.06,4.72,4.72,0,0,0,.33-3.06c-1-4,11,6,14,10s6,2,7,11,6,3,6,10,7,9,11,5,7-1,10,5,8-7,5-12-2-16,6-19,22-5,26-19,30,0,30,0,9-3,15-9,14-15,21-14,13-8,15-10,7,1,9-6,11-14,21-9,13,4,23,15,21,3,25,1c3.15-1.58,18.75,1.2,27.16,1.46a4.87,4.87,0,0,1,.84-1.46C712.5,812.5,709.5,810.5,706.5,811.5Z"
     id="path24"
     style="fill:#ff4081;fill-opacity:1;stroke-width:0.5;stroke-miterlimit:10;stroke-dasharray:none;stroke:#ffffff;stroke-opacity:1" />
  <path
     class="cls-1"
     d="M355.5,799.5c2-5-1-8-1-8-5-12,7-28,7-28s11-3,10-9c-.54-3.26,2.15-7.1,4.73-9.94a29.63,29.63,0,0,1-6.73-4.06c-.41-.33-.82-.62-1.21-.9l-.27-.18c-.39-.26-.77-.5-1.14-.71l-.52-.27-.28-.14-.48-.22-.29-.13-.46-.17-.28-.1-.44-.13-.28-.08-.43-.09-.26,0-.42-.07-.24,0-.41,0h-.8a8,8,0,0,0-2,.33l-.1,0-.36.13-.15,0-.33.14-.15.07a1.77,1.77,0,0,0-.31.15l-.15.07-.29.16-.15.09-.27.17a.57.57,0,0,0-.13.08l-.27.18-.11.08-.27.19-.06,0c-.44.34-.83.68-1.17,1h0l-.26.24h0l-.51.5-.06.05-.13.13-.07.06-.1.09-.07.06-.09.07-.06,0-.08,0,0,0-.1,0c-1,0-15,18-17,21s-7,7-10,11-4,28-4,28-1.07,1.6-2.3,3.52a64.66,64.66,0,0,1,6.3,6.48c3,4-1,12,0,19,.7,4.9,5.81,8.33,8.81,9.94l2.19-3.94s11,5,19-4a12.37,12.37,0,0,1,5.75-4.06,58.73,58.73,0,0,1-3.75-18.94C358.5,805.5,353.5,804.5,355.5,799.5Z"
     id="path26"
     style="fill:#ff4081;fill-opacity:1;stroke-width:0.5;stroke-miterlimit:10;stroke-dasharray:none;stroke:#ffffff;stroke-opacity:1" />
  <path
     class="cls-1"
     d="M443.5,794.5c1-10-7-8-11-12s-12-23-12-24-11-6-11-6v-9.11c-1.19.71-2,1.11-2,1.11-7-6-11-3-14,0-2.33,2.33-9.5,3.43-17.27.06-2.58,2.84-5.27,6.68-4.73,9.94,1,6-10,9-10,9s-12,16-7,28c0,0,3,3,1,8s3,6,3,10a58.73,58.73,0,0,0,3.75,18.94c4.44-1.28,7.35,1.87,10.25-3.94l25,41s2,14,6,16c3.17,1.58,7.59,2.55,9.29,8.34,2.86-2.07,6.67,3.61,12.71-9.34,5.23-11.2,9.34-15.71,10.67-18.94a39,39,0,0,1-1.67-10.06,43.31,43.31,0,0,1-1-5c0-1,3-4,3-7,12-20-2-13,6-27S442.5,804.5,443.5,794.5Z"
     id="path28"
     style="fill:#ff4081;fill-opacity:1;stroke-width:0.5;stroke-miterlimit:10;stroke-dasharray:none;stroke:#ffffff;stroke-opacity:1" />
  <path
     class="cls-2"
     d="M617.5,586.5c-9,7-15,4-15,13s-21,11-28,12-34,14-39,23-23,3-34,2l-22-3-40,27a2.86,2.86,0,0,0-1.24,2.31L504.5,776.5s27-9,38-5,33-9,33-9a12,12,0,0,1,11,0c6,3,25-2,28-6s9-5,12-9c0,0,10-1,13-5,2.24-3,8.94-5.42,14.28-9-5.1-.61-4.81-5.7-8.28-10-4-5-2-11,0-12s8-13,11-15,7,6,15,4,12-7,18-13,3-21,3-21c1-16-14-20-17-25s-11-8-13-13-5-4-6-4-2,4-3,1-4-23-4-23-12-10-11-18a.29.29,0,0,1,0-.09C631.92,583.11,622.8,582.38,617.5,586.5Z"
     id="path30"
     style="fill:#ff4081;fill-opacity:1;stroke-width:0.5;stroke-miterlimit:10;stroke-dasharray:none;stroke:#ffffff;stroke-opacity:1" />
  <path
     class="cls-2"
     d="M636.5,564.5v-9s-4-14-12-23c0,0-13,9-19,9s-6,4-8,4-12,2-14,3-13,3-19,5-28,7-32,8-29,7-31,13c0,0,8,5,11,6s4,0,5,3,8,4,12,1,12-3,13,2,12-2,16,5c2.89,5.06,2.65,16.93,3.43,24.62,5.41-2.52,10.17-4.28,12.57-4.62,7-1,28-3,28-12s6-6,15-13c5.3-4.12,14.42-3.39,21-2.09.53-3.89,3.9-6.59,7.2-8.33A23.66,23.66,0,0,0,636.5,564.5Z"
     id="path32"
     style="fill:#ff4081;fill-opacity:1;stroke-width:0.5;stroke-miterlimit:10;stroke-dasharray:none;stroke:#ffffff;stroke-opacity:1" />
  <path
     class="cls-2"
     d="M725.5,522.5l-5-6-17-18s-6-6-3-12-1-8-1-8-5,0-7-2-7-1-7-1c1-7-4-12-4-12s-10-1-11-10-10-11-12-12-10,0-10,0,0-4-7-7-9-11-9-11c-2-10-7,0-7,0l-6,13s-5,9-12,9-9,5-10,7-9,6-9,6-10,12-15,12-13,6-13,6l-10,12s-17,1-21-1-9,1-9,1-7,7-9,14-8,11-17,2-13-4-13-4l-6,6s-20,9-20,10-11,1-17,7-16,3-16,3c-8-5-14-1-14-1-7,10-9,2-11-6-1.37-5.49-5.56-9.09-8.06-10.81-10.62,10.65-14.52,9.89-20.94,10.81-7,1-5,9-6,17s-18,38-18,38c-14,14,5,16,11,21s7,17,7,17l27,2c31-3,30-10,33-12s13-2,19-4,13-5,13-5c17,3,36-7,36-7,4-7.53,8-10.94,11.18-12.4,2.93-5.86,26.91-11.62,30.82-12.6s26-6,32-8,17-4,19-5,12-3,14-3,2-4,8-4,19-9,19-9c8,9,12,23,12,23v9a23.66,23.66,0,0,1,9.22,11.58,32.06,32.06,0,0,1,6.78-2.58c13-11,18-7,23-4s11-2,15-7,8-1,10-2l8-4a87.77,87.77,0,0,1,15-12c6-4,1-9,1-9C732.5,526.5,725.5,522.5,725.5,522.5Z"
     id="path34"
     style="fill:#ff4081;fill-opacity:1;stroke-width:0.5;stroke-miterlimit:10;stroke-dasharray:none;stroke:#ffffff;stroke-opacity:1" />
  <path
     class="cls-2"
     d="M422.5,662.5c-4,2-19-2-20,2s-6,7-13,4-9,0-11,0-4-8-7-9-13,5-17,6c-3.79,1-16.53,1.91-20.42,21.52,1.06-.64,1.76-.23,1.42,2.48-1,8,8,5,9,1s10-10,12-7-3,8-3,8c-7,16,7,23,11,32a31.6,31.6,0,0,1,2.38,15.21c.37.21.75.45,1.14.71l.27.18c.39.28.8.57,1.21.9,10,8,21,7,24,4s7-6,14,0c0,0,8-4,11-9s9-1,9-1,8-15,9-19-3-9-3-9,9,2,9-5-3-3-1-11-7-4-6-7c.89-2.68,1.78-18.07,2-21.37C433.12,661.67,425.32,661.09,422.5,662.5Z"
     id="path36"
     style="fill:#ff4081;fill-opacity:1;stroke-width:0.5;stroke-miterlimit:10;stroke-dasharray:none;stroke:#ffffff;stroke-opacity:1" />
  <path
     class="cls-3"
     d="M319.5,669.5c2-4-7-1-9-2a7.47,7.47,0,0,1-3-3,25.45,25.45,0,0,0-7.4.27c2.91,3.05,5.52,5.85,6.4,6.73,2,2-1,6-9,10s-4,8-2,8a4.3,4.3,0,0,1,4,4c0,2,7,2,10-2s6,4,8,0c.85-1.71,1.7-2,2.4-1.68C319.15,683.39,318.1,672.3,319.5,669.5Z"
     id="path38"
     style="fill:#ff4081;fill-opacity:1;stroke-width:0.5;stroke-miterlimit:10;stroke-dasharray:none;stroke:#ffffff;stroke-opacity:1" />
  <path
     class="cls-4"
     d="M305.5,620.5c5-1,21-3,23-3s15,2,21-1c3.84-1.92,10.14-2.61,14.18-3.91l-1.18-.09s-1-12-7-17-25-7-11-21c0,0,17-30,18-38s-1-16,6-17c6.42-.92,10.32-.16,20.94-10.81a18.92,18.92,0,0,0-1.94-1.19l2-5c-1-7,10-10,10-10s12-8,8-10-5-7-5-7c5-6,2-9,2-9a6.18,6.18,0,0,1-1-7c2-4,2-7,4-16s10-7,10-7l2-2,4-5s7-3,4-7-1-9-1-9l3-5v-3s-19-4-33,5-20-6-22-8a1.22,1.22,0,0,1-.23-.81,22.88,22.88,0,0,0-9.77,2.81c-4,2-10,10-12,11s-26,28-32,32,2,4-3,10-2,10,0,13,4,7-4,6-7,4-8,6-11,11-11,11-5,8-10,6-3,3-1,4,2,5,2,5c0,8-10,18-12,20s-4,12-4,18-1,23-1,31a8.63,8.63,0,0,0,.42,3.14c2,8.61,10.58,21.86,10.58,21.86s4,7,0,12,1,10,5,16,6-3,6-3c1.89-6.31,3.78-3.07,5.17.44C298.14,625.2,302.24,621.15,305.5,620.5Z"
     id="path40"
     style="fill:#ff4081;fill-opacity:1;stroke-width:0.5;stroke-miterlimit:10;stroke-dasharray:none;stroke:#ffffff;stroke-opacity:1" />
  <path
     class="cls-5"
     d="M332.5,638.5a97.78,97.78,0,0,0-17,13l7,8,12-5,3,6s2-1,7-4,26-10,31-13,2-6,0-9-1-6-2-12c-.54-3.23-7.73-2.4-14.26-1h0c-5.61,1.24-10.74,3-10.74,3A61.41,61.41,0,0,1,332.5,638.5Z"
     id="path42"
     style="fill:#ff4081;fill-opacity:1;stroke-width:0.5;stroke-miterlimit:10;stroke-dasharray:none;stroke:#ffffff;stroke-opacity:1" />
  <path
     class="cls-5"
     d="M321.5,662.5l4,2,1,2,10.4-7.2-2.4-4.8-12,5-7-8a97.78,97.78,0,0,1,17-13,61.41,61.41,0,0,0,16-14s5.13-1.71,10.74-3l1.26-5,8-1,3.3-2.31-8.12-.6c-4,1.3-10.34,2-14.18,3.91-6,3-19,1-21,1s-18,2-23,3c-3.26.65-7.36,4.7-9.83,7.44a36,36,0,0,0,1.83,4.56c1,1,3,9,3,12s-6,8-5,1-2-6-3-4-2,14-2,14c1.68,1.12,5.88,5.39,9.6,9.27a25.45,25.45,0,0,1,7.4-.27s.11.21.31.51l5.69-6.51Z"
     id="path44"
     style="fill:#ff4081;fill-opacity:1;stroke-width:0.5;stroke-miterlimit:10;stroke-dasharray:none;stroke:#ffffff;stroke-opacity:1" />
  <path
     class="cls-2"
     d="M558.5,591.5c-4-7-15,0-16-5s-9-5-13-2-11,2-12-1-2-2-5-3-11-6-11-6a2.35,2.35,0,0,1,.18-.4c-3.2,1.46-7.19,4.87-11.18,12.4,0,0-19,10-36,7,0,0-7,3-13,5s-16,2-19,4-2,9-33,12l-17.7-1.31-3.3,2.31-8,1-1.26,5c6.53-1.45,13.72-2.28,14.26,1,1,6,0,9,2,12s5,6,0,9-26,10-31,13-7,4-7,4l-.6-1.2-10.4,7.2-1-2-4-2-8-4L307.81,665a7.23,7.23,0,0,0,2.69,2.49c2,1,11-2,9,2-1.4,2.8-.35,13.89.4,20.32a3.94,3.94,0,0,1,1.6,1.68c1,7,7,2,7,2s3.5-5.24,5.58-6.48c3.89-19.61,16.63-20.57,20.42-21.52,4-1,14-7,17-6s5,9,7,9,4-3,11,0,12,0,13-4,16,0,20-2c2.82-1.41,10.62-.83,15-.37,0-.4,0-.63,0-.63h1l2-2,39-26,22,3c11,1,29,7,34-2,3.28-5.91,16.06-13.55,26.43-18.38C561.15,608.43,561.39,596.56,558.5,591.5Z"
     id="path46"
     style="fill:#ff4081;fill-opacity:1;stroke-width:0.5;stroke-miterlimit:10;stroke-dasharray:none;stroke:#ffffff;stroke-opacity:1" />
  <path
     class="cls-6"
     d="M529.5,255.5c-3-1-15-4-20-6s-27,1-27,1-12,6-15,2-12-5-12-5-6-4-7-11-3-4-3-4l-3,3s-5,0-10-5-15-2-22,0-4,8-4,8,1,7,1,8-8,7-8,7l-12,7s-2,4-5,0-10-5-11-5-11-4-12-12-6-9-6-9c-3-8-6-4-10-10s-8-1-12,0-4-5-4-5,8-15,8-18-4-12-4-12-2-4,0-6,0-3,2-7-1-8-3-7-6-1-6-1c-2-4-8-1-11,2s-9,0-9,0c-12,0-15-6-15-6s-1-3-7-1a9.36,9.36,0,0,1-5.83.39c-.34,5.4-.76,10.54-1.17,12.61-1,5-4,15-5,18s-8,9-11,9-9,6-7,8,8,9,8,13,4,9,4,11,4,3,0,11-6,10-9,12-1,4-3,6-10,7-12,11,1,17-2,22-10,9-19,12-1,7-10,11a67.12,67.12,0,0,1-16,5v6s5,7,4,13,2,9,1,14,5,10,8,13,10,12,16,15,11,9,12,16-1,6,4,15c0,0,2,2-2,9s5,10,8,11,3,5,3,9,6,2,6,0,4,0,5,4,9,14,9,14,5,4,11-3,14-2,18-4,7-6,12-6c3.14,0,7.46,1.57,10.73,2.25,0-2.54-3.11-3.33,1.27-6.25,6-4,30-31,32-32s8-9,12-11a22.88,22.88,0,0,1,9.77-2.81c-.15-4.57,9.23-24.19,9.23-24.19s-5-18-1-13,10,0,11-1a31.21,31.21,0,0,1,13-6,35.36,35.36,0,0,0,11-4s7-4,5-6-4-6-5-8,0-9-2-17,12-14,17-10,11,2,11,2,2-4,5-1,14,4,14,4c17,2,23-3,23-3s8-17,14-19,20-10,20-10,10-14,16-19S532.5,256.5,529.5,255.5Z"
     id="path48"
     style="fill:#ff4081;fill-opacity:1;stroke-width:0.5;stroke-miterlimit:10;stroke-dasharray:none;stroke:#ffffff;stroke-opacity:1" />
  <path
     class="cls-6"
     d="M115.5,296.5,83.38,306.92a8.06,8.06,0,0,0,2.12,2.58c3,2,3,7,3,7s-3,2,0,4a6.46,6.46,0,0,1,3,5l-2,4c4,4,4,12,3,13s-6,3-5,6a2.05,2.05,0,0,1-2,3,6.23,6.23,0,0,0-3.43,2.21c4,2.14,8.81,3.89,11.43,1.79,5-4,8,1,12,1s15-5,18-7a20.83,20.83,0,0,1,6.39-2.4l8.61-26.6Z"
     id="path50"
     style="fill:#ff4081;fill-opacity:1;stroke-width:0.5;stroke-miterlimit:10;stroke-dasharray:none;stroke:#ffffff;stroke-opacity:1" />
  <path
     class="cls-6"
     d="M162.5,350.5c4,6,11,1,12-8s10-10,14-15c2.06-2.58,3.59-2.76,5-1.92v-.08a67.12,67.12,0,0,0,16-5c9-4,1-8,10-11s16-7,19-12,0-18,2-22,10-9,12-11,0-4,3-6,5-4,9-12,0-9,0-11-4-7-4-11-6-11-8-13,4-8,7-8,10-6,11-9,4-13,5-18c.41-2.07.83-7.21,1.17-12.61a4.13,4.13,0,0,1-2.17-1.39s2-7-2-11-4-10-4-10,2-8-3-11-2-7-2-7,8-10,13-15,11-12,11-17,5-9,9-12,1-6,1-6l-9-8s-5-2-9-9-12-11-17-13-7-8-9-10-6-2-10-6-10,1-10,1c-4,3-4,0-6-5s-8,1-8,1c-6,1-8,5-7,7s-2,10-2,10-8,6-8,15-5,11-5,11l-14,12-5,10c-7,12-21,4-21,4-6-4-8-2-8-2l-4,3c-9,6-3,13-3,13l5,5c-1,8,3,11,9,16s0,7,0,7-10-7-15,1-8,2-8,2,0-2-4-3-10-1-21,3-14,12-17,14-8,4-12,6-6,4-6,5,4,4,2,10-3,2-6,4-1,7,1,9,15,18,17,23,9,16,9,16,10,19,8,21-6,16-5,21-1,8-2,13-5,4-11,6-1-2-10-7-9,7-7,8,2,8,2,8c-4,6,1,3,5,3,3,0,4.87,5,6.88,8.42L115.5,296.5l23,24-8.61,26.6a33.08,33.08,0,0,1,16.61.4,45.06,45.06,0,0,1,4.64,1.65C155,347.82,159.84,346.52,162.5,350.5Z"
     id="path52"
     style="fill:#ff4081;fill-opacity:1;stroke-width:0.5;stroke-miterlimit:10;stroke-dasharray:none;stroke:#ffffff;stroke-opacity:1" />
  <path
     class="cls-7"
     d="M150.5,500.5a9.5,9.5,0,0,0,1.93,2.82,1.43,1.43,0,0,1,1.07.18c2,1,7,7,9,8s10,3,16,5,11,6,11,0-3-12-5-14-5-13,1-16,5-10,5-10c5-6,2-7,5-18s-2-29-2-36-12-7-9-13,1-10-1-12-2,0-5-1-5-4-6-7-9-1-5-4,3-8,3-8c-6-11,2-7-4-15s-10-12-20-15-20,0-23,2-14,7-18,7-7-5-12-1c-2.62,2.1-7.44.35-11.43-1.79-2.33,3.09-.57,7.79-.57,7.79s5,3,2,8,4,5,4,5c-4,3-1,6-1,6,4-2,12,1,14,3s16,24,18,37,11,27,11,34,7,32,8,33c.48.48,1.43,8.65,2.51,17.64C144.43,502.87,150.5,499.86,150.5,500.5Z"
     id="path54"
     style="fill:#ff4081;fill-opacity:1;stroke-width:0.5;stroke-miterlimit:10;stroke-dasharray:none;stroke:#ffffff;stroke-opacity:1" />
  <path
     class="cls-7"
     d="M212.5,645.5c-7.44.83-6.19-11-6.19-12.81.1-.73.19-1.19.19-1.19s-4,2-11,2-3-10-3-10,5-11,7-17-6-9-6-10-2-7-2-7c-5,5-10-9-10-9-4,6-8-4-8-4l-4,3c-9-1-3-11-3-11s4-2,6-13-8-9-9-10,1-7,1-11a31.54,31.54,0,0,0-7-21c-5.51-7.09-6.06-9.82-5.07-10.18a9.5,9.5,0,0,1-1.93-2.82c0-.64-6.07,2.37-10.49,4.64,1.15,9.65,2.45,20.25,3.49,23.36,2,6,1,34,1,37s-5,37-6,39-5,17-8,21-3,12,1,9,7,0,6,6-5,1-5,5-3,11-4,14-20,17-20,17c-10,4-5,3-2,5s9,2,10-3,6-4,6-4h15c13.91,2.78,25.88,9.92,34.24,14.68,1.5-3.39,3.21-6.52,4.76-7.68,4-3,5-14,5-14l18-4c-2-5,2-12,2-12C213.5,649.5,212.5,645.5,212.5,645.5Z"
     id="path56"
     style="fill:#ff4081;fill-opacity:1;stroke-width:0.5;stroke-miterlimit:10;stroke-dasharray:none;stroke:#ffffff;stroke-opacity:1" />
  <path
     class="cls-6"
     d="M196.5,509.5c3-7,14-12,16-23s8-12,8-18,10-13,11-18c.79-4,7.22-8.55,10.86-13.77-3.73-1.47-9.13-4.52-5.86-10.23,4-7,2-9,2-9-5-9-3-8-4-15s-6-13-12-16-13-12-16-15-9-8-8-13-2-8-1-14-4-13-4-13v-5.92c-1.41-.84-2.94-.66-5,1.92-4,5-13,6-14,15s-8,14-12,8c-2.66-4-7.51-2.68-11.36-1.35,6.78,2.84,10.39,6.72,15.36,13.35,6,8-2,4,4,15,0,0,1,5-3,8s4,1,5,4,3,6,6,7,3-1,5,1,4,6,1,12,9,6,9,13,5,25,2,36,0,12-5,18c0,0,1,7-5,10s-3,14-1,16,4.57,7.17,4.95,12.72A9.6,9.6,0,0,0,196.5,509.5Z"
     id="path58"
     style="fill:#ff4081;fill-opacity:1;stroke-width:0.5;stroke-miterlimit:10;stroke-dasharray:none;stroke:#ffffff;stroke-opacity:1" />
  <path
     class="cls-6"
     d="M317.5,470.5c-2-3-5-7,0-13,1.35-1.62,1.75-2.8,1.73-3.75-3.27-.68-7.59-2.25-10.73-2.25-5,0-8,4-12,6s-12-3-18,4-11,3-11,3-8-10-9-14-5-6-5-4-6,4-6,0,0-8-3-9c-.55-.18-1.31-.44-2.14-.77-3.64,5.22-10.07,9.81-10.86,13.77-1,5-11,12-11,18,0,4.27-3,6-5.52,10.63l6.52,42.37h5l7,31,9-6s3-8,10-8c5.54,0,12.95-6.25,19.27-6.39a9.86,9.86,0,0,1,1.73-3.61c2-2,12-12,12-20,0,0,0-4-2-5s-4-6,1-4,10-6,10-6,10-9,11-11,0-7,8-6S319.5,473.5,317.5,470.5Z"
     id="path60"
     style="fill:#ff4081;fill-opacity:1;stroke-width:0.5;stroke-miterlimit:10;stroke-dasharray:none;stroke:#ffffff;stroke-opacity:1" />
  <path
     class="cls-6"
     d="M271.77,532.11c-6.32.14-13.73,6.39-19.27,6.39-7,0-10,8-10,8l-7,4.67v2.33l-8,3,4,38s7.72-1.7,11.24,3.61c.34-1.09,1.15-1.22,2.76.39,0,0,2,8,3,8s4-12,7-13c2.42-.81,10-8.76,13.42-12.86a14.47,14.47,0,0,1-.42-3.14c0-8,1-25,1-31A54.78,54.78,0,0,1,271.77,532.11Z"
     id="path62"
     style="fill:#ff4081;fill-opacity:1;stroke-width:0.5;stroke-miterlimit:10;stroke-dasharray:none;stroke:#ffffff;stroke-opacity:1" />
  <path
     class="cls-6"
     d="M203.5,510.5c-1,6,2,22,2,27s0,4-1,7,1,11,0,12-2,5-2,5h9s-3,8-4,10-6,11-2,16,1,15,9,12c5.26-2,12.24-3.51,17-5.19l-4-37.81,8-3v-2.33l-2,1.33-7-31h-5L215,479.13a24.68,24.68,0,0,0-2.48,7.37c-1.1,6-4.91,10.26-8.62,14A53.81,53.81,0,0,1,203.5,510.5Z"
     id="path64"
     style="fill:#ff4081;fill-opacity:1;stroke-width:0.5;stroke-miterlimit:10;stroke-dasharray:none;stroke:#ffffff;stroke-opacity:1" />
  <path
     class="cls-6"
     d="M251.5,625.5c-1-9-7-9-7-12,0-2.19-2.67-12.4-1.76-15.39-3.52-5.31-11.24-3.61-11.24-3.61l0-.19c-4.74,1.68-11.72,3.22-17,5.19-8,3-5-7-9-12s1-14,2-16,4-10,4-10h-9s1-4,2-5-1-9,0-12,1-2,1-7-3-21-2-27a53.81,53.81,0,0,0,.38-10c-3,3.08-6,5.83-7.38,9a9.6,9.6,0,0,1-7.05,5.72c0,.43.05.85.05,1.28,0,6-5,2-11,0s-14-4-16-5-7-7-9-8-3,1,4,10a31.54,31.54,0,0,1,7,21c0,4-2,10-1,11s11-1,9,10-6,13-6,13-6,10,3,11l4-3s4,10,8,4c0,0,5,14,10,9,0,0,2,6,2,7s8,4,6,10-7,17-7,17-4,10,3,10,11-2,11-2-.09.46-.19,1.19c6.34-2.24,15.87-4.63,23.19-2.19,12,4,18,0,20,3S252.5,634.5,251.5,625.5Z"
     id="path66"
     style="fill:#ff4081;fill-opacity:1;stroke-width:0.5;stroke-miterlimit:10;stroke-dasharray:none;stroke:#ffffff;stroke-opacity:1" />
  <path
     class="cls-3"
     d="M364.5,723.5c-4-9-18-16-11-32,0,0,5-5,3-8s-11,3-12,7-10,7-9-1-7,4-7,4a9.69,9.69,0,0,1-1.77,1.13l3.77,34.87-18,1-11,19,1,4-9-1-3,3-6-2-2,7,8,8-5,10s-3,4-1,7a12.1,12.1,0,0,1,1.69,3.89l8.31,5.11-5,7,11,12,5-10s11,9,11,8,6-10,6-10,1-24,4-28,8-8,10-11,16-21,17-21l.1,0,0,0,.08,0,.06,0,.09-.07.07-.06.1-.09.07-.06.13-.13.06-.05.51-.5h0l.26-.24h0c.34-.32.73-.66,1.17-1l.06,0,.27-.19.11-.08.27-.18a.57.57,0,0,1,.13-.08l.27-.17.15-.09.29-.16.15-.07a1.77,1.77,0,0,1,.31-.15l.15-.07.33-.14.15,0,.36-.13.1,0a8,8,0,0,1,2-.33h.8l.41,0,.24,0,.42.07.26,0,.43.09.28.08.44.13.28.1.46.17.29.13.48.22.28.14.52.27A31.6,31.6,0,0,0,364.5,723.5Z"
     id="path68"
     style="fill:#ff4081;fill-opacity:1;stroke-width:0.5;stroke-miterlimit:10;stroke-dasharray:none;stroke:#ffffff;stroke-opacity:1" />
  <path
     class="cls-3"
     d="M287.5,740.5h-13l-3-21h-4l-6,8-5-1s-1,3-2,3h-5s-2-3-3-3-1,2-2,2-2-2-2-2-3,1-3,2a6.83,6.83,0,0,1-.91,2c6.26,5,10.59,14.24,14.91,16,5,2,5,9,11,12s2,9,5,11,4,9,5,12c.44,1.33.1,4.43-.42,7.47l7.42-2.47,4.69,2.89a12.1,12.1,0,0,0-1.69-3.89c-2-3,1-7,1-7l5-10-8-8,2-7,6,2,3-3,9,1-1-4,.52-.89L292.5,736.5Z"
     id="path70"
     style="fill:#ff4081;fill-opacity:1;stroke-width:0.5;stroke-miterlimit:10;stroke-dasharray:none;stroke:#ffffff;stroke-opacity:1" />
  <path
     class="cls-3"
     d="M330.5,729.5l-3.77-34.87c-1.85.91-4.58,1.39-5.23-3.13,0,0-2-4-4,0s-5-4-8,0-9.53,4-10,2.18l-7,2.82v3l4,3s-6,13-6,14,2,15,2,15l18.94.82,1.06-1.82Z"
     id="path72"
     style="fill:#ff4081;fill-opacity:1;stroke-width:0.5;stroke-miterlimit:10;stroke-dasharray:none;stroke:#ffffff;stroke-opacity:1" />
  <path
     class="cls-3"
     d="M292.5,731.5s-.36-2.51-.77-5.49c-3.25.9-7.23-2.51-7.23-2.51l1-5h-6l-7.7,3.08,2.7,18.92h13l5-4L302,748.61l9.42-16.29Z"
     id="path74"
     style="fill:#ff4081;fill-opacity:1;stroke-width:0.5;stroke-miterlimit:10;stroke-dasharray:none;stroke:#ffffff;stroke-opacity:1" />
  <path
     class="cls-3"
     d="M218.5,694.5s3-3-3-5-7-1-5-8,0-11,0-17l-17,2-3.75-.83-8.25,1.83s-1,11-5,14c-1.55,1.16-3.26,4.29-4.76,7.68,3.66,2.08,6.63,3.71,8.76,4.32,7,2,27,14,27,14a36.37,36.37,0,0,1,4.82,2.69l4.18-11.69Z"
     id="path76"
     style="fill:#ff4081;fill-opacity:1;stroke-width:0.5;stroke-miterlimit:10;stroke-dasharray:none;stroke:#ffffff;stroke-opacity:1" />
  <path
     class="cls-3"
     d="M263.5,638.5c4,0,22,8,24,0a30.81,30.81,0,0,0,.87-6.49c-1,.89-2.25.91-3.87-1.51-4-6-9-11-5-16s0-12,0-12-8.57-13.25-10.58-21.86c-3.38,4.1-11,12.05-13.42,12.86-3,1-6,13-7,13s-3-8-3-8c-6-6-1,12-1,15s6,3,7,12a44.3,44.3,0,0,1,.36,6.88l3.64,3.12S259.5,638.5,263.5,638.5Z"
     id="path78"
     style="fill:#ff4081;fill-opacity:1;stroke-width:0.5;stroke-miterlimit:10;stroke-dasharray:none;stroke:#ffffff;stroke-opacity:1" />
  <path
     class="cls-3"
     d="M232,673c1-1,5-21,9-24s14,0,14,3,2.5,9.5,2.5,9.5l-6,7h8l2,21s11-2,10-2-9-26-9-26,19-2,20-2,4,3,4,3l10.71-.71a65.28,65.28,0,0,0-6.71-6.29s1-12,2-14,4-3,3,4,5,2,5-1-2-11-3-12-4-15-7-5c0,0-.71,3.2-2.13,4.51a30.81,30.81,0,0,1-.87,6.49c-2,8-20,0-24,0s-8-3-8-3l-3.64-3.12c-.17,2.89-1.05,3.09-2.36,1.12-2-3-8,1-20-3-7.32-2.44-16.85,0-23.19,2.19-.49,3.53-1.25,13.64,6.19,12.81,0,0,1,4-11,6,0,0-4,7-2,12l-9.75,2.17,3.75.83,17-2c0,3.2.57,5.84.79,8.66C218.24,673.39,231.27,673.73,232,673Z"
     id="path80"
     style="fill:#ff4081;fill-opacity:1;stroke-width:0.5;stroke-miterlimit:10;stroke-dasharray:none;stroke:#ffffff;stroke-opacity:1" />
  <path
     class="cls-3"
     d="M241,672l4,4,9-7.5h-2.5l6-7S255,655,255,652s-10-6-14-3c-3.42,2.57-6.84,17.57-8.39,22.48C235.19,672.44,238.37,673.05,241,672Z"
     id="path82"
     style="fill:#ff4081;fill-opacity:1;stroke-width:0.5;stroke-miterlimit:10;stroke-dasharray:none;stroke:#ffffff;stroke-opacity:1" />
  <path
     class="cls-3"
     d="M297.5,681.5c8-4,11-8,9-10-1.16-1.16-5.38-5.72-9.29-9.71l-10.71.71s-3-3-4-3-20,2-20,2,8,26,9,26a10,10,0,0,1-2.51.59l6.51,9.41,2,6,17.32-2.26-2.32-1.74v-3l7-2.82a1,1,0,0,1,0-.18,4.3,4.3,0,0,0-4-4C293.5,689.5,289.5,685.5,297.5,681.5Z"
     id="path84"
     style="fill:#ff4081;fill-opacity:1;stroke-width:0.5;stroke-miterlimit:10;stroke-dasharray:none;stroke:#ffffff;stroke-opacity:1" />
  <path
     class="cls-3"
     d="M249.5,694.5s-5,4-2,9,5,0,11,0,10,1,13,0a44.78,44.78,0,0,1,5.64-1.08l-1.64-4.92L269,688.09c-3,.59-7.49,1.41-7.49,1.41l-.14-1.5c-2.4,1.53-5.86,3.5-5.86,3.5Z"
     id="path86"
     style="fill:#ff4081;fill-opacity:1;stroke-width:0.5;stroke-miterlimit:10;stroke-dasharray:none;stroke:#ffffff;stroke-opacity:1" />
  <path
     class="cls-3"
     d="M233.5,712.5c2-3,9-7,10-10,.94-2.81,1.87-10,6.89-8.45l5.11-2.55s3.46-2,5.86-3.5l-1.86-19.5H254l-9,7.5-4-4c-2.63,1-5.81.44-8.39-.52A5.57,5.57,0,0,1,232,673c-.73.73-13.76.39-20.71.16a22.33,22.33,0,0,1-.79,8.34c-2,7-1,6,5,8s3,5,3,5l-2,4-4.18,11.69c7.53,4.89,14.09,12.22,20.06,16.41C232.19,722.88,232,714.79,233.5,712.5Z"
     id="path88"
     style="fill:#ff4081;fill-opacity:1;stroke-width:0.5;stroke-miterlimit:10;stroke-dasharray:none;stroke:#ffffff;stroke-opacity:1" />
  <path
     class="cls-3"
     d="M296.5,702.5l-1.68-1.26L277.5,703.5l-.36-1.08a44.78,44.78,0,0,0-5.64,1.08c-3,1-7,0-13,0s-8,5-11,0,2-9,2-9l.89-.45c-5-1.53-5.95,5.64-6.89,8.45-1,3-8,7-10,10-1.52,2.29-1.31,10.38-1.12,14.1a25.33,25.33,0,0,0,3.12,1.9,17.32,17.32,0,0,1,3.09,2,6.83,6.83,0,0,0,.91-2c0-1,3-2,3-2s1,2,2,2,1-2,2-2,3,3,3,3h5c1,0,2-3,2-3l5,1,6-8h4l.3,2.08,7.7-3.08h6l-1,5s4,3.41,7.23,2.51c-.57-4-1.23-8.93-1.23-9.51C290.5,715.5,296.5,702.5,296.5,702.5Z"
     id="path90"
     style="fill:#ff4081;fill-opacity:1;stroke-width:0.5;stroke-miterlimit:10;stroke-dasharray:none;stroke:#ffffff;stroke-opacity:1" />
</svg>
